<svg version="1.0" xmlns="http://www.w3.org/2000/svg" viewBox="0 0 375 375">
  <path d="M127.001 95.086c-5.863 0.173 -10.337 0.416 -10.511 0.589 -0.937 0.937 0.312 1.11 8.499 1.11 11.76 0 17.935 1.006 25.879 4.197 1.839 0.728 3.538 1.353 3.816 1.353s1.144 0.278 1.908 0.659c1.422 0.659 3.816 1.631 10.789 4.441 2.116 0.833 4.614 1.839 5.551 2.255 10.373 4.302 12.488 5.134 12.904 5.134 0.243 0 0.728 0.139 1.076 0.312 4.614 2.463 14.154 4.996 24.942 6.661 10.303 1.561 10.095 1.526 12.939 2.324 3.331 0.902 5.308 1.631 6.661 2.394 1.179 0.694 3.399 2.81 3.399 3.261 0 0.139 0.208 0.416 0.451 0.555 0.382 0.243 1.7 1.665 6.487 6.869 1.041 1.144 2.498 3.261 3.226 4.683 1.561 2.949 3.954 6.661 6.314 9.713 4.787 6.244 7.806 16.131 7.806 25.636 0 2.602 -0.173 5.724 -0.382 6.973s-0.382 2.636 -0.382 3.122c0 2.949 -3.608 12.974 -6.418 17.796 -3.122 5.377 -5.446 7.909 -12.904 13.911 -4.093 3.331 -5.481 4.753 -4.371 4.579 0.278 -0.034 2.428 -1.353 4.787 -2.914 8.152 -5.377 14.292 -13.252 18.212 -23.312 3.192 -8.256 4.406 -14.986 4.093 -22.896 -0.451 -12.003 -3.018 -19.739 -9.679 -29.001 -0.902 -1.249 -2.428 -3.816 -3.399 -5.654 -2.671 -5.169 -5.897 -9.262 -9.436 -12.038 -1.179 -0.937 -2.289 -1.839 -2.498 -2.047 -0.624 -0.728 -3.226 -2.602 -3.538 -2.602 -0.173 0 -1.144 -0.382 -2.116 -0.867 -1.006 -0.486 -2.081 -0.867 -2.428 -0.867s-0.763 -0.139 -0.971 -0.312c-0.971 -0.867 -7.285 -1.943 -19.739 -3.331 -8.222 -0.937 -9.644 -1.144 -12.315 -2.047 -2.775 -0.937 -6.452 -2.255 -8.083 -2.949 -0.555 -0.208 -1.076 -0.382 -1.144 -0.382 -0.104 0 -1.041 -0.382 -2.081 -0.867s-1.978 -0.867 -2.047 -0.867 -1.006 -0.382 -2.047 -0.867 -2.081 -0.867 -2.289 -0.867c-0.382 0 -4.267 -1.665 -8.603 -3.677 -1.353 -0.659 -2.636 -1.179 -2.775 -1.179s-1.596 -0.555 -3.192 -1.249c-1.631 -0.659 -4.024 -1.631 -5.377 -2.116 -1.318 -0.486 -2.879 -1.076 -3.469 -1.284 -1.526 -0.624 -3.018 -1.179 -7.111 -2.532 -1.978 -0.659 -3.851 -1.318 -4.163 -1.457 -0.902 -0.486 -5.759 -0.589 -16.269 -0.347m-21.647 8.187c-0.382 0.382 0.486 1.144 1.318 1.144 1.006 0 1.318 -0.347 0.833 -0.937 -0.416 -0.486 -1.769 -0.624 -2.151 -0.208"/>
  <path d="M108.476 103.966c-0.347 0.347 0.451 1.144 1.179 1.144 0.347 0 1.179 0.312 1.873 0.694s1.388 0.694 1.596 0.694c0.971 0 7.285 4.926 10.684 8.361 2.532 2.532 5.064 5.62 6.522 7.944 2.047 3.296 3.712 5.412 5.481 7.008 0.763 0.694 2.671 2.394 4.197 3.816 3.226 2.914 3.192 2.844 11.066 9.818 3.261 2.844 6.591 5.897 7.458 6.764 3.504 3.538 5.481 4.718 19.947 11.933a282.5 282.5 0 0 1 4.336 2.22c0.659 0.382 2.151 1.11 3.296 1.665s2.324 1.179 2.602 1.422c0.278 0.208 2.949 1.631 5.897 3.122 2.949 1.526 6.661 3.538 8.256 4.475s3.331 1.943 3.851 2.255c0.521 0.347 1.388 1.006 1.873 1.492s1.076 0.902 1.284 0.902c0.521 0 5.654 3.886 7.736 5.863 0.937 0.867 1.804 1.943 1.978 2.359 0.208 0.486 0.624 0.798 1.076 0.798 0.416 0 0.659 0.104 0.555 0.208 -0.139 0.139 0.208 0.798 0.728 1.492 0.555 0.694 1.665 2.463 2.463 3.954 1.284 2.394 1.631 3.538 2.844 9.54 1.631 8.222 1.561 7.979 2.186 7.319 0.763 -0.798 0.104 -7.354 -1.144 -11.691 -1.041 -3.573 -3.088 -7.84 -4.857 -10.095 -0.555 -0.694 -1.214 -1.734 -1.526 -2.289 -0.312 -0.589 -1.734 -2.255 -3.192 -3.747 -1.457 -1.526 -2.602 -2.775 -2.532 -2.775 1.006 -0.521 1.631 -1.041 2.463 -2.047 0.867 -1.076 1.006 -1.561 1.144 -4.302 0.173 -2.775 0.104 -3.331 -0.728 -5.516 -2.116 -5.654 -2.428 -7.84 -1.561 -11.136 0.659 -2.532 0.659 -2.706 0.104 -3.365 -0.589 -0.624 -0.624 -0.624 -1.249 0.173 -0.382 0.451 -1.214 1.873 -1.908 3.226 -1.11 2.186 -1.249 2.775 -1.388 5.793 -0.139 2.949 -0.034 3.677 0.798 6.244 0.521 1.561 1.144 3.192 1.388 3.573 0.208 0.382 0.659 1.388 0.937 2.255 0.451 1.318 0.451 1.734 0.034 2.671 -0.659 1.596 -1.526 1.457 -3.712 -0.589 -1.006 -0.971 -1.978 -1.734 -2.151 -1.734s-1.11 -0.624 -2.047 -1.388c-0.971 -0.728 -2.116 -1.665 -2.602 -2.012 -0.971 -0.728 -10.407 -6.314 -10.684 -6.314 -0.104 0 -0.659 -0.382 -1.284 -0.833 -0.589 -0.451 -1.631 -1.076 -2.289 -1.388 -1.978 -0.902 -6.348 -3.365 -7.077 -3.989 -0.382 -0.312 -1.144 -0.798 -1.734 -1.076 -1.284 -0.589 -7.771 -4.232 -9.887 -5.516 -0.867 -0.521 -2.567 -1.492 -3.816 -2.116 -2.394 -1.249 -5.551 -3.226 -9.471 -5.863 -1.318 -0.867 -3.747 -2.463 -5.446 -3.504 -1.665 -1.041 -4.718 -3.469 -6.799 -5.412 -2.081 -1.908 -4.614 -4.267 -5.654 -5.203 -3.504 -3.157 -5.759 -5.62 -7.944 -8.534 -3.816 -5.203 -8.707 -9.991 -14.604 -14.396 -3.989 -2.983 -9.609 -5.308 -10.546 -4.371m97.341 2.498c-0.798 0.139 -2.255 0.798 -3.296 1.457 -1.006 0.659 -2.775 1.561 -3.92 1.978 -1.144 0.451 -2.359 0.971 -2.671 1.144 -0.347 0.173 -0.937 0.312 -1.353 0.312 -1.144 0 -2.151 0.659 -1.734 1.179 0.382 0.451 2.706 0.347 3.018 -0.173 0.104 -0.173 0.555 -0.312 1.041 -0.312 0.451 0 1.11 -0.139 1.457 -0.312 0.312 -0.173 1.214 -0.486 1.978 -0.728s2.047 -0.937 2.879 -1.492c1.457 -1.041 1.526 -1.076 5.377 -1.006 7.008 0.139 8.013 0.312 10.234 1.943 2.567 1.908 6.418 6.209 5.932 6.695 -0.451 0.451 0.521 1.284 1.214 1.041 1.839 -0.728 -2.186 -6.418 -6.903 -9.782 -1.7 -1.179 -2.636 -1.596 -4.371 -1.873 -2.428 -0.416 -6.591 -0.416 -8.881 -0.069m-62.373 3.816c-0.243 0.416 0.416 0.833 0.867 0.555 0.382 -0.243 0.139 -0.867 -0.347 -0.867 -0.173 0 -0.382 0.139 -0.521 0.312m-35.453 0.937c-0.104 0.278 -0.034 0.867 0.173 1.284s0.486 1.526 0.589 2.498a55 55 0 0 0 0.694 3.643c0.278 1.041 0.798 3.712 1.214 5.897 1.041 5.62 2.636 9.852 5.099 13.564 1.041 1.561 3.365 2.567 5.169 2.22 1.11 -0.173 1.353 -0.069 2.428 1.041 0.624 0.694 1.526 1.978 1.978 2.879 0.416 0.902 1.353 2.498 2.047 3.538 0.659 1.041 1.665 2.775 2.186 3.816 0.555 1.041 1.179 2.151 1.388 2.428 0.243 0.278 0.555 0.902 0.694 1.353 0.139 0.486 0.798 1.7 1.457 2.706 0.659 1.041 1.7 2.844 2.324 4.024 4.614 8.846 10.754 14.778 16.269 15.819 2.671 0.486 5.793 2.012 8.568 4.197 1.249 0.971 2.81 2.116 3.469 2.567 0.694 0.451 2.116 1.631 3.226 2.636 1.076 0.971 2.116 1.7 2.289 1.596s0.278 0.069 0.243 0.416c0 0.312 0.139 0.555 0.347 0.521 0.243 -0.034 1.214 0.798 2.22 1.908 1.006 1.076 3.122 3.331 4.718 4.996s2.914 3.088 2.914 3.192c0 0.069 0.937 1.11 2.081 2.324s3.296 3.643 4.787 5.446c1.457 1.804 3.851 4.614 5.273 6.244 1.422 1.665 3.192 3.816 3.92 4.787 1.908 2.636 6.973 7.319 10.373 9.609 6.661 4.441 11.899 5.343 18.039 3.018 2.151 -0.798 5.724 -3.712 5.724 -4.683 0 -0.451 -0.104 -0.451 -0.902 0.034 -0.486 0.347 -1.457 1.006 -2.116 1.526 -6.244 4.857 -15.611 2.844 -23.763 -5.099 -1.318 -1.318 -4.024 -4.406 -5.967 -6.869 -3.712 -4.718 -4.753 -6.001 -12.072 -14.917 -8.742 -10.65 -10.407 -12.731 -10.928 -13.668 -0.659 -1.179 -4.544 -5.689 -6.383 -7.458 -5.064 -4.787 -8.499 -6.695 -12.87 -7.146 -1.526 -0.173 -3.088 -0.416 -3.469 -0.521 -3.851 -1.318 -6.695 -3.989 -12.349 -11.517 -0.694 -0.902 -1.943 -2.983 -2.741 -4.614 -0.833 -1.631 -1.769 -3.261 -2.081 -3.643 -0.659 -0.798 -4.336 -6.903 -5.377 -8.984 -0.382 -0.728 -1.804 -2.498 -3.157 -3.886l-2.498 -2.498 -2.255 0.034c-1.769 0.069 -2.394 -0.069 -2.983 -0.589 -0.902 -0.798 -2.463 -3.643 -3.331 -5.932 -0.347 -0.971 -0.728 -1.908 -0.902 -2.081 -0.139 -0.208 -0.451 -1.318 -0.624 -2.428 -0.624 -3.538 -1.804 -8.326 -2.151 -8.672 -0.173 -0.173 -0.312 -0.902 -0.312 -1.596 0 -0.728 -0.139 -1.422 -0.347 -1.526 -0.173 -0.104 -0.347 -0.521 -0.347 -0.902 0 -0.347 -0.139 -0.937 -0.312 -1.284 -0.173 -0.312 -0.416 -0.867 -0.521 -1.214 -0.243 -0.728 -0.867 -0.763 -1.144 -0.034"/>
  <path d="M144.519 110.974c-0.173 0.278 2.741 2.602 6.209 4.961 0.763 0.486 2.949 2.012 4.857 3.365 6.764 4.822 9.262 6.175 13.009 7.111 6.522 1.665 7.979 2.116 9.921 3.018 1.144 0.555 2.671 1.422 3.365 1.943 1.076 0.833 4.302 3.018 6.106 4.093 0.312 0.173 1.041 0.694 1.665 1.11 0.589 0.451 1.214 0.798 1.353 0.798s1.041 0.521 2.012 1.179c2.463 1.631 4.163 1.908 12.87 2.289 8.429 0.347 10.06 0.694 12.072 2.567 1.804 1.631 2.498 4.163 2.879 10.615 0.139 2.602 0.451 3.399 1.144 2.983 0.728 -0.451 0.451 -7.944 -0.382 -11.17 -0.694 -2.706 -0.902 -3.018 -2.463 -4.336 -2.602 -2.22 -6.869 -3.538 -12.731 -3.92 -5.099 -0.347 -7.632 -0.833 -9.818 -1.873 -1.214 -0.555 -2.498 -1.318 -2.879 -1.7 -0.937 -1.006 -5.724 -4.648 -7.111 -5.481l-2.394 -1.388c-2.186 -1.318 -5.689 -2.532 -8.326 -2.914 -7.008 -1.041 -11.482 -2.047 -12.592 -2.914 -0.624 -0.451 -1.492 -0.971 -1.943 -1.11 -0.486 -0.139 -2.081 -1.11 -3.608 -2.151 -2.428 -1.665 -7.632 -4.891 -10.928 -6.73 -1.249 -0.728 -2.012 -0.833 -2.289 -0.347"/>
</svg>
