<?xml version="1.0" encoding="utf-8"?>
<svg version="1.0" xmlns="http://www.w3.org/2000/svg" width="300.000000pt" height="302.000000pt" viewBox="0 0 300.000000 302.000000" preserveAspectRatio="xMidYMid meet" xmlns:bx="https://boxy-svg.com"><defs><bx:export><bx:file format="svg" units="pt"/></bx:export></defs><g transform="translate(0.000000,302.000000) scale(0.050000,-0.050000)" fill="#000000" stroke="none"><path d="M2831 5802 c-6 -10 -78 -25 -159 -32 -138 -13 -155 -20 -238 -97 -50 -46 -154 -123 -232 -173 -153 -97 -342 -267 -342 -309 0 -14 -35 -70 -77 -123 -209 -265 -258 -441 -182 -660 23 -65 57 -176 77 -248 20 -71 55 -170 79 -219 52 -107 54 -130 8 -110 -116 48 -148 1 -132 -191 13 -165 72 -332 170 -485 97 -151 111 -160 210 -146 71 11 87 8 87 -18 0 -18 41 -113 91 -213 117 -233 178 -469 150 -575 -21 -79 -155 -223 -207 -223 -15 0 -44 -18 -64 -40 -20 -22 -54 -40 -75 -40 -46 0 -317 -73 -415 -112 -73 -29 -267 -81 -370 -100 -322 -57 -538 -343 -590 -778 -29 -246 -48 -337 -93 -440 -19 -44 -36 -84 -37 -90 -10 -50 -62 -182 -90 -230 -73 -123 -72 -154 3 -146 60 5 66 12 61 61 -6 57 134 87 166 35 7 -11 47 -20 90 -20 43 0 83 -8 89 -18 31 -50 491 -80 530 -33 14 17 19 31 11 31 -8 0 -4 14 10 30 14 17 42 30 62 30 21 0 38 9 38 20 0 11 -32 20 -71 20 -85 0 -76 29 16 50 l65 15 -80 15 c-50 10 -85 8 -93 -5 -7 -12 -28 7 -45 42 -40 77 -126 92 -103 18 8 -25 22 -76 31 -115 10 -38 38 -87 63 -107 l46 -36 -80 14 c-43 9 -146 50 -229 93 -82 43 -222 101 -309 130 l-160 52 83 73 c61 54 78 81 65 102 -82 129 0 151 193 51 97 -51 186 -92 197 -92 12 0 83 -41 158 -90 152 -100 153 -100 153 -65 0 55 155 108 366 127 64 6 195 24 290 40 96 16 197 32 224 36 28 4 57 8 65 9 8 2 15 11 15 21 0 23 -203 9 -460 -31 -104 -16 -260 -39 -345 -52 -127 -18 -155 -28 -155 -58 0 -59 -56 -21 -81 55 -25 75 -59 91 -59 27 0 -45 -57 -40 -120 10 -16 13 -118 67 -225 121 -206 102 -273 190 -145 190 60 0 373 -150 473 -226 39 -30 81 -54 93 -54 12 0 31 -16 43 -35 35 -60 58 7 59 172 1 188 14 202 170 184 110 -13 323 5 392 33 17 7 53 15 80 18 208 23 268 32 312 49 28 10 76 19 108 19 125 0 165 63 65 102 -58 23 -311 29 -345 8 -16 -10 -242 -41 -427 -59 -31 -3 -63 -15 -71 -27 -16 -26 -187 -13 -247 19 -41 22 -41 22 7 60 44 35 45 39 13 58 -24 14 -35 46 -35 99 0 42 -9 102 -21 132 -24 65 5 112 45 72 15 -15 81 -23 175 -21 83 1 129 7 101 12 -27 5 -59 16 -71 26 -108 88 -495 -13 -633 -166 -34 -37 -36 -36 -96 8 -54 40 -58 49 -31 69 17 12 31 32 31 44 0 29 108 104 149 104 18 0 68 18 111 40 43 22 96 40 118 40 22 0 57 18 77 39 22 24 63 39 105 39 39 0 88 1 110 3 22 1 108 -4 190 -12 154 -14 266 27 172 63 -47 18 -39 46 9 33 80 -20 185 73 114 102 -14 5 -1 11 28 11 30 1 65 21 82 47 l31 45 157 -57 c697 -252 1094 -315 1451 -231 223 52 262 132 93 189 -246 82 -272 472 -49 714 48 52 107 135 130 185 35 76 51 90 99 90 77 0 115 47 186 233 107 279 153 607 85 607 -27 0 -30 -6 -13 -23 18 -18 14 -32 -18 -59 -32 -28 -41 -62 -44 -156 l-2 -121 -55 53 c-78 75 -125 35 -108 -90 9 -70 4 -98 -28 -139 -60 -76 -53 -113 20 -98 33 7 60 4 60 -5 0 -30 -54 -63 -83 -52 -27 10 -117 -55 -117 -86 0 -8 -27 -44 -60 -82 -33 -37 -60 -77 -60 -88 0 -12 -29 -50 -65 -84 -117 -114 -283 -315 -321 -388 -20 -40 -53 -86 -73 -104 -36 -30 -36 -32 0 -54 47 -29 88 -14 128 48 51 78 71 56 71 -77 0 -118 5 -130 81 -212 45 -48 79 -89 75 -91 -32 -22 -177 -54 -193 -44 -12 8 -45 -1 -73 -20 -67 -44 -83 -24 -57 70 27 102 -9 164 -54 96 -16 -24 -34 -62 -40 -84 -9 -33 -30 -41 -120 -46 -156 -8 -179 2 -277 125 -73 92 -98 110 -144 107 -41 -3 -51 -11 -36 -28 38 -46 -18 -49 -117 -6 -87 37 -144 118 -84 118 11 0 19 14 19 30 0 17 -11 28 -25 25 -14 -3 -26 13 -27 35 -2 36 -15 98 -41 195 -13 46 25 31 185 -69 67 -42 128 -76 136 -76 7 0 37 -15 66 -34 29 -19 79 -32 112 -29 33 4 99 -5 148 -18 66 -19 94 -19 111 -2 17 17 13 23 -17 23 -21 0 -57 12 -79 27 -21 15 -75 32 -119 38 -87 12 -350 131 -430 194 -27 22 -59 40 -71 41 -25 0 -98 118 -101 163 -1 19 -8 47 -14 65 -7 17 -3 37 9 44 15 9 14 18 -3 28 -13 8 -26 41 -28 73 -5 70 -67 192 -91 177 -20 -12 -32 21 -52 140 -11 66 -9 76 13 55 50 -48 63 -25 51 90 -6 63 -12 127 -12 141 -1 15 -10 21 -21 14 -11 -7 -20 2 -20 19 0 17 -8 31 -19 31 -10 0 -15 -50 -11 -110 6 -114 -17 -149 -109 -159 -17 -2 -58 -15 -91 -29 -61 -26 -110 -12 -126 35 -6 18 4 18 44 0 29 -13 58 -18 65 -11 22 22 -11 74 -60 93 -63 24 -74 60 -38 116 65 100 0 176 -90 105 -78 -62 -92 -51 -76 55 8 52 15 125 14 161 0 56 6 65 41 60 45 -7 53 -17 119 -163 28 -62 48 -87 56 -70 19 37 -21 577 -42 577 -44 0 136 388 201 433 36 25 60 119 70 279 3 45 21 104 41 130 l35 48 -10 -60 c-6 -33 -15 -78 -20 -100 -14 -61 6 -76 48 -38 56 50 54 -115 -2 -207 -63 -104 -39 -117 69 -35 51 39 63 61 56 100 -6 29 0 50 13 50 12 0 22 -9 22 -20 0 -11 18 -20 40 -20 22 0 39 -7 38 -15 -7 -44 8 -61 62 -69 33 -5 60 -2 60 7 0 10 14 17 30 17 17 0 30 9 30 20 0 41 37 18 77 -49 56 -94 148 -140 227 -113 35 13 73 14 93 4 60 -31 237 -47 253 -22 17 28 112 9 214 -42 144 -73 193 -45 101 57 -95 107 -103 119 -142 238 -107 319 -14 770 106 517 18 -40 67 -103 107 -140 63 -58 71 -73 51 -106 -42 -68 1 -96 71 -45 34 24 57 52 51 62 -17 27 16 69 56 72 20 1 35 -11 36 -30 0 -18 12 -49 27 -69 43 -56 105 -281 153 -554 24 -137 55 -281 70 -320 41 -107 34 -184 -14 -154 -20 13 -33 35 -28 48 11 29 -31 149 -62 176 -12 11 -28 47 -36 80 -8 33 -29 77 -47 97 -24 26 -34 76 -36 170 -3 157 -23 359 -39 385 -22 36 -49 17 -52 -37 -2 -47 -4 -49 -11 -10 -10 49 -46 62 -46 17 0 -15 20 -89 44 -165 25 -75 45 -183 45 -240 1 -87 9 -110 53 -145 42 -32 56 -65 66 -156 8 -64 18 -147 24 -186 16 -118 19 -263 7 -405 -7 -96 -4 -135 13 -135 41 0 128 136 145 227 10 48 56 159 103 246 156 286 39 926 -218 1191 -29 29 -83 85 -122 124 -38 40 -125 96 -193 125 l-122 54 -18 121 -17 122 -73 0 c-49 0 -90 15 -122 45 -52 49 -114 58 -151 21 -18 -18 -32 -15 -63 13 -22 20 -57 32 -78 26 -22 -6 -87 2 -145 17 -123 32 -231 36 -247 10z m-286 -126 c-24 -24 -50 -38 -57 -30 -20 19 31 74 69 74 26 0 23 -9 -12 -44z m596 7 c47 -38 40 -83 -12 -83 -39 0 -114 76 -99 101 19 29 61 23 111 -18z m145 9 c7 -17 -4 -32 -27 -38 -47 -12 -75 24 -37 48 39 24 52 22 64 -10z m-406 -88 c0 -28 -46 -64 -82 -64 -18 0 -45 -14 -59 -31 -23 -28 -19 -30 26 -19 28 8 70 3 93 -9 36 -19 45 -16 60 24 30 80 88 115 70 43 -14 -57 -13 -57 26 -23 42 38 137 49 115 14 -7 -12 -37 -32 -66 -44 -52 -22 -52 -22 -8 -30 60 -10 57 -40 -6 -69 -32 -15 -48 -36 -43 -56 6 -24 -8 -33 -54 -37 -79 -5 -192 -111 -157 -146 17 -17 36 -8 76 40 36 43 70 63 108 63 58 0 133 58 78 62 -21 1 -22 3 -1 12 14 5 59 41 100 78 79 72 137 90 116 36 -8 -20 -3 -28 13 -23 14 5 24 24 22 42 -1 18 9 33 23 33 79 0 68 57 -14 71 l-86 15 67 18 c50 14 79 10 114 -13 26 -17 70 -31 97 -31 94 0 134 -69 44 -76 -62 -5 -73 -13 -61 -40 32 -79 32 -107 -3 -159 -20 -30 -38 -67 -41 -82 -2 -14 -19 -44 -38 -64 -19 -21 -34 -63 -33 -94 2 -106 26 -255 48 -300 13 -25 17 -51 10 -58 -7 -6 -23 11 -36 40 -14 29 -32 53 -41 53 -9 0 -17 31 -17 69 0 54 -7 67 -30 58 -34 -13 -44 62 -10 83 25 15 26 50 2 50 -27 0 -68 -184 -44 -199 31 -19 106 -199 92 -221 -6 -10 -2 -38 11 -61 12 -23 18 -47 12 -52 -23 -23 -118 66 -147 136 -40 102 -75 100 -58 -3 16 -100 -11 -103 -75 -9 -48 71 -88 58 -50 -16 15 -28 10 -35 -22 -35 -41 0 -57 48 -24 68 10 6 13 33 8 59 -5 27 2 68 15 93 17 32 18 50 2 66 -33 33 -45 6 -48 -114 -2 -72 -11 -112 -27 -112 -29 0 -56 110 -35 144 9 14 14 57 11 95 -7 92 38 196 115 270 81 77 79 106 -3 48 -108 -77 -129 -104 -143 -187 -19 -119 -80 -330 -94 -330 -51 0 -23 272 36 342 34 41 33 58 -5 58 -16 0 -35 -13 -42 -30 -7 -20 -27 -26 -59 -18 -49 13 -58 -3 -36 -61 11 -26 18 -28 44 -7 25 22 29 21 21 -4 -6 -16 -27 -30 -48 -30 -47 0 -88 -78 -89 -165 0 -50 -9 -65 -37 -65 -70 0 -63 55 32 236 55 105 56 121 5 74 -22 -20 -40 -44 -40 -54 0 -10 -23 -51 -52 -92 l-52 -74 11 104 c6 57 26 127 45 156 41 62 28 85 -19 33 -19 -21 -49 -102 -68 -180 -39 -169 -89 -188 -66 -25 3 17 -7 23 -27 15 -23 -8 -32 0 -32 28 0 44 3 48 109 171 104 122 86 131 -31 17 -85 -83 -100 -91 -88 -49 8 28 16 50 17 50 2 0 39 28 83 61 63 48 93 58 140 49 59 -12 86 -1 336 136 46 26 66 41 44 34 -91 -30 -176 -36 -162 -13 18 29 1 29 -49 2 -22 -11 -39 -33 -39 -49 0 -52 -131 -86 -172 -45 -22 22 -136 -9 -181 -49 -43 -40 -82 -129 -130 -304 -15 -54 -43 -108 -62 -120 -21 -13 -35 -46 -35 -85 0 -82 -18 -127 -50 -127 -21 0 -51 -77 -59 -150 -4 -39 -94 -150 -113 -139 -10 6 -18 -3 -18 -20 0 -17 -9 -31 -20 -31 -47 0 -15 93 52 153 65 58 70 70 53 121 l-19 56 -30 -70 c-34 -77 -109 -154 -130 -133 -7 8 15 74 51 148 60 127 67 163 63 353 -1 75 43 172 78 172 24 0 39 -140 16 -154 -10 -6 -14 -32 -9 -58 5 -27 1 -48 -9 -48 -17 0 -3 -117 16 -138 47 -51 74 105 38 218 -12 37 -8 44 18 34 22 -9 32 -2 32 25 0 24 16 41 45 45 34 5 46 21 51 71 4 36 15 65 25 65 11 0 19 18 19 39 0 22 20 58 44 80 42 39 40 78 -3 52 -23 -15 -101 -176 -101 -210 0 -12 -8 -21 -19 -21 -10 0 -22 -16 -27 -35 -7 -27 -10 -24 -12 9 -1 25 17 81 40 125 23 44 36 88 30 97 -15 26 61 92 176 152 134 71 178 65 76 -10 -46 -34 -84 -66 -84 -72 0 -6 14 0 30 14 17 14 30 19 30 11 0 -8 25 4 56 26 31 22 81 46 110 54 30 7 59 21 65 31 6 10 23 18 38 18 15 0 59 32 97 70 64 64 134 92 134 54z m-292 -81 c6 -10 -7 -34 -28 -53 -40 -36 -51 -21 -28 38 13 35 40 42 56 15z m1281 -300 c20 4 41 -4 46 -18 5 -15 -9 -25 -33 -25 -23 0 -42 -10 -42 -22 0 -16 -9 -15 -30 2 -16 14 -30 48 -30 76 0 47 2 49 26 16 14 -20 43 -33 63 -29z m-1161 -419 c-13 -65 -48 -69 -48 -7 0 33 40 90 54 76 3 -4 1 -35 -6 -69z m1611 -354 c18 -23 47 -170 34 -170 -29 0 -94 191 -81 238 l15 52 9 -50 c4 -27 15 -59 23 -70z m-2532 -2723 c97 -13 109 -48 17 -46 -60 1 -193 55 -142 57 18 1 74 -4 125 -11z m-436 -379 c1 -79 -24 -158 -50 -158 -15 0 -31 -11 -36 -25 -5 -14 5 -25 20 -25 34 0 67 -316 36 -347 -10 -10 -13 -49 -6 -88 10 -64 8 -68 -27 -49 -85 45 -134 120 -121 183 10 50 1 70 -53 120 -72 68 -94 75 -94 31 0 -16 8 -30 17 -30 24 0 94 -136 78 -151 -7 -8 -38 4 -69 26 -31 22 -108 64 -171 94 -137 64 -146 75 -94 122 22 20 36 48 30 62 -18 49 60 70 99 27 93 -103 270 -171 270 -104 0 20 11 48 25 63 20 22 18 25 -16 17 -26 -6 -65 10 -105 44 l-65 54 77 53 c42 29 85 53 95 53 10 1 42 18 69 40 59 46 90 42 91 -12z m-509 -451 c37 -13 73 -29 78 -35 6 -7 43 -30 83 -51 91 -47 212 -151 176 -151 -14 0 -81 36 -148 79 -66 43 -164 98 -216 121 -136 60 -117 86 27 37z"/><path d="M3080 4884 c0 -20 -9 -45 -19 -55 -12 -12 -5 -38 20 -69 l38 -50 1 54 c0 29 9 59 20 66 37 23 22 90 -20 90 -25 0 -40 -13 -40 -36z"/><path d="M3260 4711 c0 -28 4 -51 8 -51 5 0 23 -6 41 -12 37 -14 22 43 -23 88 -21 22 -26 18 -26 -25z"/><path d="M3558 5042 c-25 -85 -12 -223 30 -299 22 -40 25 -17 26 165 1 223 -17 264 -56 134z"/><path d="M3728 4955 c6 -20 3 -57 -7 -84 -21 -53 19 -106 59 -81 13 8 27 -4 34 -28 16 -62 46 -51 46 17 0 45 -7 57 -30 48 -20 -7 -30 1 -30 26 -1 20 -20 60 -42 87 -28 33 -38 38 -30 15z"/><path d="M3835 4546 c-41 -11 -10 -88 63 -154 58 -53 68 -34 38 75 -24 92 -31 97 -101 79z"/><path d="M2387 4225 c-103 -43 -167 -100 -167 -148 0 -50 15 -47 120 23 97 65 182 75 300 38 39 -12 111 -30 160 -39 50 -8 123 -24 163 -35 64 -16 75 -14 83 17 7 26 -5 39 -43 49 -29 7 -107 33 -173 59 -169 66 -338 80 -443 36z"/><path d="M3470 4126 c-121 -11 -173 -43 -148 -90 14 -26 33 -35 55 -26 157 63 482 17 562 -79 35 -42 61 -39 61 8 0 122 -252 211 -530 187z"/><path d="M2510 3983 c-64 -21 -99 -49 -147 -118 -25 -36 -59 -65 -74 -65 -16 0 -29 -10 -29 -22 0 -14 43 -19 120 -15 66 4 122 1 125 -6 7 -19 191 -28 208 -11 8 8 -2 26 -22 41 -26 19 -30 31 -14 41 112 69 -73 126 -198 61 -72 -37 -77 -13 -7 38 76 55 191 65 260 22 115 -72 197 -167 118 -136 -21 8 -30 -2 -30 -31 0 -51 36 -55 71 -7 25 33 27 33 41 -3 10 -26 3 -46 -24 -66 -53 -39 -61 -134 -8 -106 20 11 47 20 58 20 32 0 -43 -116 -94 -143 -25 -14 -76 -75 -114 -137 -37 -62 -87 -129 -109 -149 -52 -47 -53 -91 -1 -91 25 0 50 21 65 55 42 100 88 130 161 108 111 -34 294 -43 294 -16 0 63 -157 106 -190 53 -27 -44 -90 -21 -90 32 0 37 8 49 28 41 16 -6 60 20 101 60 44 43 89 68 116 66 91 -7 155 2 155 21 0 11 -21 20 -48 20 -48 0 -101 44 -80 66 7 6 -6 38 -29 70 -23 32 -36 64 -29 71 7 7 2 13 -12 13 -13 0 -38 34 -55 75 -53 128 -146 202 -119 95 16 -64 8 -63 -65 10 -61 61 -216 81 -333 43z"/><path d="M3540 3905 c-75 -14 -160 -83 -160 -130 0 -49 43 -175 59 -175 7 0 60 -31 118 -70 136 -89 382 -102 350 -18 -8 20 -48 28 -141 28 -123 0 -246 42 -246 84 0 33 302 17 361 -18 32 -19 63 -28 70 -22 17 17 -29 99 -49 87 -8 -5 -48 18 -88 51 -40 33 -114 74 -164 91 -89 31 -105 67 -28 67 58 0 117 -34 203 -116 85 -82 109 -78 64 12 -58 116 -179 161 -349 129z m203 -178 c51 -45 46 -67 -13 -67 -40 0 -50 10 -50 50 0 59 13 62 63 17z"/><path d="M2473 3626 c56 -42 259 -40 303 2 21 21 -9 25 -156 24 -153 -1 -177 -5 -147 -26z"/><path d="M3456 3376 c13 -13 24 -44 24 -68 0 -24 12 -48 27 -54 31 -12 193 -274 193 -313 0 -35 -173 -16 -259 28 -79 41 -402 71 -531 50 -55 -9 -143 -17 -195 -18 -113 -1 -125 -34 -38 -105 32 -25 74 -71 93 -102 78 -122 490 -238 490 -137 0 35 12 43 61 43 58 0 121 24 168 63 161 137 208 125 142 -33 -39 -93 -39 -103 2 -118 48 -19 87 24 87 96 0 34 23 106 51 159 46 86 48 99 20 120 -17 13 -34 54 -39 92 -4 39 -26 84 -50 103 -23 19 -42 42 -43 51 -1 29 -68 96 -133 132 -72 41 -105 46 -70 11z m-556 -451 c16 -25 25 -28 33 -10 12 30 67 34 67 5 0 -12 17 -10 41 5 35 21 46 19 69 -12 26 -35 28 -35 69 6 33 33 50 37 80 21 21 -11 68 -20 105 -20 106 -1 137 -32 76 -80 -27 -22 -61 -49 -74 -60 -32 -26 -120 -26 -137 1 -8 14 -21 14 -41 -2 -22 -19 -28 -17 -28 9 0 44 -16 40 -62 -13 -21 -25 -37 -36 -36 -25 7 51 -4 73 -31 63 -17 -6 -35 -2 -42 8 -7 11 -23 19 -36 17 -73 -8 -150 58 -122 104 18 28 45 21 69 -17z"/><path d="M3240 3293 c0 -25 79 -73 121 -73 34 0 20 58 -20 79 -53 29 -101 26 -101 -6z"/><path d="M2159 1764 c-49 -22 -127 -82 -118 -91 24 -21 157 -32 169 -14 7 12 59 21 115 21 117 0 110 28 -19 73 -84 29 -102 30 -147 11z"/><path d="M4060 1751 c0 -16 9 -34 20 -41 34 -21 22 -72 -25 -110 l-45 -37 50 -11 c28 -6 67 -13 88 -16 28 -5 39 -23 40 -73 3 -84 -36 -120 -92 -85 -22 13 -45 20 -51 14 -6 -6 20 -24 57 -40 57 -24 62 -31 32 -43 -46 -18 -134 21 -134 58 0 34 -61 52 -176 53 -48 0 -102 8 -122 19 -19 10 -106 24 -194 31 l-158 12 68 -56 c69 -57 194 -95 412 -124 66 -9 160 -28 209 -41 70 -19 105 -19 162 -1 63 21 83 19 155 -18 87 -44 213 -56 234 -22 15 25 324 27 339 2 37 -60 -15 -87 -137 -72 -181 22 -246 20 -302 -10 -111 -59 4 -85 136 -31 60 26 73 26 94 2 13 -16 60 -32 105 -35 76 -6 83 -11 104 -86 26 -94 41 -78 61 66 9 69 6 115 -9 133 -17 21 -17 31 1 42 44 27 274 -243 271 -317 -3 -56 3 -64 52 -65 63 -1 64 3 28 72 -15 29 -33 76 -40 105 -8 33 -45 74 -93 104 -83 53 -104 78 -46 56 28 -11 26 -2 -11 50 -48 68 -145 144 -183 144 -13 0 -61 26 -107 58 -46 32 -132 69 -193 83 -129 29 -487 179 -542 226 -47 40 -58 41 -58 4z m255 -217 c14 5 56 -10 95 -34 38 -23 78 -38 88 -31 43 26 145 -12 107 -41 -31 -24 -26 -27 45 -28 l80 -2 -67 -29 c-37 -16 -112 -29 -165 -29 -54 0 -98 -9 -98 -20 0 -11 20 -20 45 -20 25 0 59 -9 75 -20 22 -14 12 -19 -42 -20 -43 0 -94 17 -123 40 -28 22 -68 41 -88 41 -34 2 -33 3 3 18 38 16 38 18 -10 38 -32 13 -38 21 -17 22 51 2 65 63 17 75 -22 6 -40 23 -40 39 0 21 10 23 35 10 19 -9 46 -14 60 -9z m625 -234 c0 -12 -64 -19 -155 -18 -108 1 -140 7 -105 18 73 23 260 23 260 0z"/><path d="M1947 1539 c-25 -25 -161 -30 -377 -13 l-160 12 120 -28 c249 -58 297 -65 377 -55 100 13 199 59 182 86 -15 25 -116 24 -142 -2z"/><path d="M2837 1538 c-15 -10 -83 -18 -151 -18 -68 0 -145 -8 -170 -18 -25 -11 -102 -30 -171 -43 -171 -33 -164 -69 10 -50 74 8 284 19 465 23 331 8 420 19 420 49 0 9 -52 22 -115 28 -63 7 -148 20 -188 29 -40 9 -85 9 -100 0z"/><path d="M2163 1522 c-20 -13 -21 -21 -4 -31 29 -19 155 4 171 30 15 24 -130 25 -167 1z"/><path d="M1155 1466 c-19 -5 -35 -17 -35 -27 0 -11 -12 -19 -27 -19 -35 0 -133 -76 -133 -104 0 -11 30 2 66 30 37 28 100 64 140 81 103 43 96 67 -11 39z"/><path d="M2000 1430 c-27 -16 -84 -29 -126 -29 -46 -1 -71 -9 -64 -21 30 -48 330 16 330 70 0 21 -92 7 -140 -20z"/><path d="M3210 1380 c91 -23 194 -23 180 0 -7 11 -64 19 -126 18 -94 -2 -104 -5 -54 -18z"/><path d="M2302 1342 c-36 -23 -10 -62 41 -62 27 0 38 11 33 33 -7 41 -37 52 -74 29z"/><path d="M2052 1316 c-22 -12 -71 -23 -110 -24 -110 -3 -78 -40 52 -60 64 -11 123 -31 132 -45 18 -31 66 -15 83 27 9 23 2 28 -29 20 -57 -15 -50 15 11 43 28 13 46 32 39 43 -17 27 -130 24 -178 -4z"/><path d="M1605 1303 c-20 -12 -19 -24 4 -54 24 -33 35 -35 69 -14 24 14 45 17 52 5 18 -29 73 1 66 37 -7 34 -147 54 -191 26z"/><path d="M2971 1302 c-62 -24 -10 -39 175 -51 186 -12 191 -11 143 38 -34 33 -244 42 -318 13z"/><path d="M2558 1279 c-38 -24 -4 -86 37 -68 19 8 68 16 109 18 80 2 107 17 88 49 -15 22 -198 23 -234 1z"/><path d="M2830 1280 c-15 -25 40 -49 69 -31 12 8 21 22 21 32 0 25 -74 24 -90 -1z"/><path d="M2410 1240 c-15 -25 40 -49 69 -31 12 8 21 22 21 32 0 25 -74 24 -90 -1z"/><path d="M3533 1204 c-118 -29 -5 -81 137 -64 67 8 136 6 156 -4 24 -12 46 -11 62 2 14 12 32 17 39 12 7 -5 2 4 -12 20 -30 34 -289 57 -382 34z"/><path d="M4020 1160 c-31 -58 13 -69 109 -29 59 25 71 37 49 50 -51 33 -135 21 -158 -21z"/><path d="M5035 1086 c-18 -33 10 -188 32 -180 13 5 21 25 19 46 -2 21 7 44 20 52 18 11 18 24 3 49 -25 40 -61 56 -74 33z"/><path d="M2652 1048 c-7 -18 -8 -38 -3 -47 11 -18 238 -11 270 8 13 8 35 4 50 -8 15 -13 50 -17 79 -10 29 7 52 6 52 -4 0 -29 785 -30 804 -2 27 44 18 51 -89 65 -58 7 -121 17 -141 23 -22 6 -33 0 -30 -16 6 -27 -38 -29 -234 -8 -285 29 -747 29 -758 -1z"/><path d="M4100 1020 c0 -25 13 -40 37 -40 50 0 67 21 40 53 -33 40 -77 33 -77 -13z"/><path d="M4505 1006 c-36 -5 -65 -17 -65 -28 0 -29 185 -13 195 17 8 25 -4 26 -130 11z"/><path d="M3665 918 c-36 -11 -65 -32 -65 -48 0 -32 121 -62 172 -42 18 7 47 1 64 -13 21 -18 131 -26 382 -28 330 -3 360 -6 481 -55 70 -29 166 -52 213 -52 78 0 86 -5 98 -60 14 -63 29 -71 85 -42 19 9 62 28 95 42 33 14 85 38 115 54 63 32 75 8 15 -29 -59 -37 -51 -68 11 -45 73 28 73 29 66 -65 -6 -75 -2 -86 38 -91 53 -8 58 25 16 120 -16 36 -34 99 -41 140 -16 102 -40 109 -121 38 -39 -34 -82 -62 -97 -62 -15 0 -38 -14 -52 -30 -39 -47 -86 -39 -60 10 17 31 11 55 -29 118 -64 102 -64 102 -179 80 -53 -9 -107 -11 -119 -3 -13 8 -41 17 -63 19 -22 3 -98 14 -170 24 -142 21 -375 8 -415 -23 -16 -12 -46 -11 -88 3 -34 12 -102 22 -149 22 -47 0 -91 9 -98 20 -14 23 -17 23 -105 -2z"/><path d="M2920 818 c0 -12 -14 -17 -31 -10 -18 6 -26 3 -19 -8 7 -11 40 -20 74 -20 52 0 57 4 36 30 -29 35 -60 39 -60 8z"/><path d="M3244 816 c-40 -40 -27 -66 36 -70 69 -5 76 13 24 61 -28 25 -42 27 -60 9z"/><path d="M2718 812 c-4 -5 -66 -13 -138 -18 -136 -9 -201 -27 -224 -62 -9 -13 -28 -7 -54 16 -22 20 -50 29 -63 21 -14 -8 -55 -17 -93 -19 -86 -5 -111 -30 -77 -76 24 -32 30 -33 58 -5 18 19 35 23 43 12 12 -21 116 -8 173 22 22 11 37 8 42 -7 5 -15 23 -8 51 20 24 24 44 35 44 24 0 -11 14 -20 30 -20 17 0 30 9 30 21 0 14 14 13 41 -2 31 -16 49 -16 70 2 16 13 42 18 59 12 44 -17 89 6 77 39 -11 26 -50 38 -69 20z"/><path d="M3443 782 c-21 -13 -20 -19 7 -29 50 -19 65 -16 77 17 13 33 -39 41 -84 12z"/><path d="M3731 761 c-16 -26 19 -44 57 -29 18 7 46 1 62 -12 18 -15 30 -17 30 -4 0 11 -28 30 -63 42 -76 27 -72 26 -86 3z"/><path d="M1893 710 c-7 -16 -32 -30 -57 -31 -45 0 -45 -1 -6 -23 22 -12 45 -29 50 -37 17 -23 100 -43 100 -23 0 87 -65 172 -87 114z"/><path d="M2970 667 c-106 -9 -511 -67 -555 -80 -19 -5 -35 -23 -35 -40 0 -32 6 -32 330 2 167 18 258 11 290 -22 27 -28 19 -30 -85 -18 -66 8 -115 6 -115 -4 0 -45 304 -86 330 -46 7 12 30 21 51 21 22 0 39 10 39 22 0 15 19 17 55 7 30 -8 159 -17 285 -20 273 -6 522 -28 550 -50 38 -29 251 -62 365 -57 86 4 141 -6 215 -40 55 -25 136 -50 180 -55 l80 -10 -56 52 c-31 28 -65 46 -75 40 -11 -6 -44 2 -74 18 -62 34 -256 73 -363 73 -83 1 -133 26 -114 57 29 47 -82 66 -415 74 -356 8 -593 31 -713 68 -38 11 -74 19 -80 18 -5 -2 -46 -7 -90 -10z m419 -100 c62 -8 85 -19 67 -30 -39 -25 -158 -19 -226 12 l-60 28 62 1 c34 1 105 -4 157 -11z"/><path d="M4413 570 c-7 -16 -5 -31 3 -31 8 -1 37 -5 66 -9 61 -8 108 17 89 48 -20 33 -145 27 -158 -8z"/><path d="M4830 555 c-8 -21 -5 -76 8 -160 5 -33 37 -12 62 40 30 61 27 108 -7 130 -34 21 -53 18 -63 -10z"/><path d="M5180 561 c-84 -25 -220 -101 -220 -121 0 -26 74 -26 90 0 7 11 26 20 44 20 17 0 61 27 99 60 71 62 70 67 -13 41z"/><path d="M5255 436 c-31 -21 -51 -47 -45 -56 12 -20 130 35 130 60 0 36 -32 35 -85 -4z"/><path d="M2252 383 c-11 -17 -80 -29 -497 -86 -128 -17 -175 -31 -175 -52 0 -20 14 -26 45 -18 25 6 167 21 315 33 287 23 542 76 555 116 10 28 -226 35 -243 7z"/><path d="M2650 380 c-22 -8 -61 -21 -86 -30 -25 -8 -42 -25 -38 -38 9 -26 127 -25 411 5 136 14 221 15 244 2 20 -10 59 -19 87 -19 61 0 88 -36 38 -52 -20 -6 -54 -19 -76 -29 -22 -9 -162 -21 -310 -27 -271 -10 -340 -21 -340 -54 0 -22 28 -24 48 -3 30 30 591 38 610 9 7 -10 62 -25 122 -33 61 -7 146 -18 190 -24 101 -13 194 20 177 62 -8 23 2 31 41 31 31 0 52 -11 52 -28 0 -22 53 -30 245 -36 135 -5 259 -13 275 -17 20 -6 28 3 24 26 -6 39 103 52 126 15 7 -11 29 -20 49 -20 20 0 47 -14 61 -30 14 -17 60 -36 103 -43 43 -7 83 -20 89 -30 25 -41 121 -16 165 43 31 42 61 60 101 60 31 0 67 12 80 27 12 16 67 34 122 41 54 7 104 22 110 33 7 10 41 19 76 19 86 1 119 25 111 82 -8 58 -136 77 -178 27 -13 -16 -36 -29 -51 -29 -16 0 -28 -9 -28 -20 0 -11 -12 -20 -28 -20 -15 0 -39 -14 -53 -31 -17 -20 -43 -27 -79 -19 -36 8 -62 1 -79 -19 -14 -17 -38 -31 -54 -31 -15 0 -44 -10 -64 -23 -29 -18 -59 -15 -135 12 -206 73 -267 89 -279 70 -13 -21 120 -85 287 -138 89 -29 101 -38 77 -59 -21 -17 -40 -18 -66 -4 -86 49 -315 142 -349 142 -19 0 -41 9 -48 19 -6 11 -58 19 -116 19 -57 0 -133 3 -169 7 -36 5 -97 10 -136 12 -141 6 -44 43 116 43 89 0 158 3 153 8 -12 12 -464 54 -678 64 -104 5 -212 14 -240 20 -75 18 -664 25 -710 8z m1180 -111 c-87 -39 -370 -39 -370 1 0 25 37 30 215 28 199 -1 210 -3 155 -29z m-314 -98 c6 -6 -36 -11 -93 -11 -62 0 -103 9 -103 22 0 22 173 12 196 -11z"/><path d="M4980 330 c-14 -17 -20 -36 -14 -43 21 -20 74 10 74 42 0 40 -28 40 -60 1z"/><path d="M2320 269 c-49 -16 -148 -34 -220 -40 -71 -6 -188 -15 -260 -21 -332 -27 -360 -32 -360 -59 0 -21 22 -26 85 -19 47 4 211 18 365 29 310 24 342 29 465 75 156 58 92 88 -75 35z"/><path d="M5499 179 c-49 -32 -102 -59 -119 -59 -16 0 -120 -27 -230 -59 l-200 -60 180 7 c285 11 490 83 490 172 0 61 -28 61 -121 -1z"/><path d="M2440 138 c-129 -38 -323 -78 -378 -78 -34 0 -62 -9 -62 -20 0 -13 30 -16 77 -8 49 8 83 4 92 -10 21 -34 95 -26 161 18 33 22 74 40 91 40 41 0 110 51 87 64 -10 5 -40 3 -68 -6z"/><path d="M2840 79 c-27 -8 -99 -17 -160 -19 -60 -2 -155 -16 -210 -31 -93 -25 -77 -26 210 -17 289 9 408 10 546 5 51 -2 114 32 93 50 -19 16 -432 27 -479 12z"/><path d="M5570 40 l-60 -40 85 0 c91 0 91 0 73 48 -16 41 -25 40 -98 -8z"/><path d="M1880 30 l-50 -29 65 0 c45 -1 65 8 65 29 0 37 -16 37 -80 0z"/><path d="M3745 45 c-70 -24 17 -45 181 -44 111 0 172 7 154 17 -34 19 -296 40 -335 27z"/></g></svg>