<?xml version="1.0" standalone="no"?>
<!DOCTYPE svg PUBLIC "-//W3C//DTD SVG 20010904//EN"
 "http://www.w3.org/TR/2001/REC-SVG-20010904/DTD/svg10.dtd">
<svg version="1.0" xmlns="http://www.w3.org/2000/svg"
 width="500.000000pt" height="500.000000pt" viewBox="0 0 500.000000 500.000000"
 preserveAspectRatio="xMidYMid meet">

<g transform="translate(0.000000,500.000000) scale(0.100000,-0.100000)"
fill="#000000" stroke="none">

<path d="M1580 3960 c192 -8 270 -24 426 -88 27 -11 67 -27 89 -36 22 -8 72
-28 110 -44 340 -143 435 -175 600 -202 289 -49 375 -75 420 -128 13 -15 50
-56 84 -92 33 -36 72 -87 87 -115 15 -27 50 -81 77 -119 65 -91 106 -183 123
-276 36 -203 -3 -419 -107 -592 -42 -69 -161 -190 -231 -234 -20 -13 -40 -28
-43 -35 -14 -21 150 94 184 130 104 111 175 242 211 391 58 235 11 503 -118
670 -15 20 -43 66 -62 103 -39 76 -135 181 -206 227 -84 53 -164 72 -419 100
-165 18 -178 23 -585 190 -118 49 -255 103 -305 122 l-90 33 -215 1 -215 1
185 -7z"/>
<path d="M1356 3805 c91 -46 209 -155 273 -252 54 -83 60 -90 191 -204 47 -40
105 -92 130 -115 155 -142 183 -163 302 -224 68 -35 182 -93 253 -130 341
-174 483 -279 561 -414 17 -31 38 -96 55 -175 28 -123 28 -124 22 -51 -15 208
-126 372 -359 530 -56 39 -106 70 -109 70 -4 0 -19 8 -33 19 -15 10 -58 36
-97 56 -73 40 -89 49 -195 110 -36 21 -88 51 -116 66 -28 15 -67 38 -86 51
-19 13 -75 48 -123 78 -105 66 -301 243 -363 329 -46 63 -74 93 -147 157 -67
59 -187 134 -215 134 -7 0 18 -16 56 -35z"/>
<path d="M2772 3790 c-18 -4 -41 -14 -50 -23 -9 -8 -27 -18 -40 -22 -13 -4
-21 -9 -18 -12 3 -3 28 6 55 21 43 22 64 26 132 26 99 0 144 -22 202 -96 20
-26 37 -42 37 -35 0 6 -26 38 -57 70 -75 77 -151 97 -261 71z"/>
<path d="M1810 3757 c0 -3 12 -12 26 -22 15 -9 23 -12 20 -6 -7 11 -46 35 -46
28z"/>
<path d="M1890 3701 c14 -12 36 -29 50 -39 14 -9 54 -37 90 -63 89 -63 119
-78 232 -109 59 -17 117 -41 150 -62 132 -87 199 -128 220 -133 13 -3 85 -9
160 -13 190 -11 214 -30 229 -187 l8 -80 -3 92 c-3 83 -6 96 -31 129 -36 48
-70 61 -208 78 -137 19 -156 25 -218 77 -62 51 -154 107 -199 119 -20 5 -71
15 -115 21 -97 13 -121 23 -227 92 -46 29 -101 64 -123 76 -38 22 -39 22 -15
2z"/>
<path d="M1290 3696 c0 -17 53 -244 66 -283 16 -47 48 -101 69 -115 5 -4 27
-8 47 -8 34 0 40 -5 71 -52 18 -29 66 -114 106 -188 77 -141 142 -238 186
-279 35 -32 94 -61 125 -61 28 0 91 -38 185 -111 74 -58 229 -217 359 -369
236 -277 238 -279 343 -330 72 -35 169 -41 213 -14 l25 15 -25 -8 c-14 -4 -52
-8 -86 -8 -105 1 -211 71 -320 210 -21 28 -97 121 -169 209 -71 87 -152 187
-178 222 -106 140 -237 244 -308 244 -113 0 -190 77 -347 347 -88 150 -139
208 -173 198 -56 -18 -105 66 -150 254 -17 72 -33 131 -35 131 -2 0 -4 -2 -4
-4z"/>
<path d="M2929 3023 c-36 -57 -34 -156 4 -240 27 -61 27 -63 11 -95 -16 -31
-16 -32 0 -19 43 36 58 110 35 168 -28 71 -37 122 -28 169 5 26 7 49 5 51 -2
2 -14 -13 -27 -34z"/>
<path d="M3115 1924 c-19 -15 -22 -21 -9 -15 18 9 52 41 43 41 -2 0 -17 -12
-34 -26z"/>








</g>
</svg>
