<?xml version="1.0" standalone="no"?>
<!DOCTYPE svg PUBLIC "-//W3C//DTD SVG 20010904//EN"
 "http://www.w3.org/TR/2001/REC-SVG-20010904/DTD/svg10.dtd">
<svg version="1.0" xmlns="http://www.w3.org/2000/svg"
 width="500.000000pt" height="500.000000pt" viewBox="0 0 500.000000 500.000000"
 preserveAspectRatio="xMidYMid meet">

<g transform="translate(0.000000,500.000000) scale(0.100000,-0.100000)"
fill="#000000" stroke="none">




  <path d="M2882 1668 c-24 -12 -40 -54 -26 -68 5 -5 27 -16 49 -23 28 -10 40
-20 40 -33 0 -25 -47 -31 -69 -8 -19 18 -32 13 -23 -10 8 -20 73 -31 102 -18
36 17 44 61 15 84 -12 10 -30 18 -40 18 -21 0 -44 25 -35 40 10 15 46 12 67
-7 17 -15 18 -15 18 1 0 9 -12 21 -26 26 -31 12 -43 12 -72 -2z"/>
<path d="M2016 1643 c7 -16 17 -42 20 -59 3 -17 16 -44 30 -60 l24 -29 18 24
c11 13 27 47 37 75 10 28 22 57 28 64 7 9 3 12 -16 12 -20 0 -24 -4 -20 -19 5
-20 -24 -111 -36 -111 -12 0 -43 91 -38 110 4 17 0 20 -28 20 -34 0 -34 0 -19
-27z"/>
<path d="M2195 1585 c0 -84 0 -86 23 -83 23 3 24 7 25 86 2 81 2 82 -23 82
-25 0 -25 -1 -25 -85z"/>
<path d="M2277 1588 l1 -83 58 0 c49 0 59 3 62 18 3 16 1 17 -16 8 -12 -6 -30
-11 -42 -11 -20 0 -21 4 -18 75 3 74 3 75 -22 75 -25 0 -25 -1 -23 -82z"/>
<path d="M2417 1589 c0 -44 4 -83 7 -86 3 -3 13 -3 22 1 13 5 14 9 5 20 -7 8
-11 35 -9 61 l3 46 49 -66 c28 -36 53 -65 58 -65 4 0 8 36 8 79 0 54 4 81 13
84 6 3 1 6 -13 6 -24 1 -26 -2 -22 -33 7 -59 -3 -62 -37 -13 -25 36 -38 47
-59 47 l-27 0 2 -81z"/>
<path d="M2597 1588 c1 -79 2 -83 25 -86 23 -3 23 -1 23 83 0 84 0 85 -25 85
-25 0 -25 -1 -23 -82z"/>
<path d="M2672 1603 c8 -75 29 -103 77 -103 50 0 65 21 71 99 4 59 3 71 -10
71 -12 0 -14 -12 -12 -60 4 -68 -7 -90 -44 -90 -17 0 -28 8 -34 26 -14 35 -12
98 2 112 9 9 4 12 -23 12 l-35 0 8 -67z"/>
<path d="M1556 1401 c-4 -6 0 -21 8 -33 23 -32 23 -269 1 -292 -32 -31 -17
-36 113 -36 126 0 129 0 174 30 104 69 103 232 0 304 -38 26 -49 28 -165 33
-87 4 -126 2 -131 -6z m229 -64 c43 -43 60 -103 45 -157 -15 -57 -56 -99 -102
-107 -63 -10 -68 2 -68 142 0 68 3 130 6 139 4 11 19 16 46 16 32 0 47 -7 73
-33z"/>
<path d="M1974 1399 c-3 -6 -1 -16 5 -22 14 -14 15 -293 1 -302 -5 -3 -10 -13
-10 -21 0 -11 16 -14 70 -14 39 0 70 3 70 8 0 4 -7 16 -15 26 -23 31 -21 272
2 298 15 17 15 20 3 28 -21 13 -117 12 -126 -1z"/>
<path d="M2132 1403 c-8 -3 -10 -9 -3 -16 5 -7 28 -68 51 -137 51 -154 90
-220 130 -220 19 0 33 8 45 26 19 29 98 224 109 269 4 17 15 38 24 48 14 16
14 19 2 27 -8 6 -28 10 -45 10 -16 0 -37 -4 -45 -10 -12 -7 -11 -12 5 -30 19
-21 19 -24 3 -85 -9 -34 -26 -82 -36 -106 -11 -24 -23 -53 -27 -64 -6 -17 -9
-15 -26 20 -37 73 -79 185 -79 210 0 13 8 29 18 34 15 9 15 12 2 21 -15 10
-105 12 -128 3z"/>
<path d="M2524 1399 c-3 -6 -1 -16 5 -22 14 -14 15 -307 1 -307 -5 0 -10 -7
-10 -15 0 -12 14 -15 70 -15 70 0 83 7 55 30 -23 19 -22 276 1 301 9 10 13 23
9 28 -8 14 -122 14 -131 0z"/>
<path d="M2695 1399 c-4 -6 3 -20 15 -31 20 -19 21 -27 18 -155 -3 -116 -5
-136 -20 -144 -33 -18 -19 -29 37 -29 59 0 64 4 40 30 -13 14 -15 40 -13 128
l3 112 45 -64 c25 -35 68 -96 95 -135 41 -58 55 -70 78 -71 l27 0 0 154 c0
138 2 156 20 179 17 22 18 26 4 31 -23 9 -67 7 -84 -4 -12 -7 -12 -11 3 -28
15 -16 17 -35 15 -107 l-3 -87 -74 107 c-41 58 -82 110 -92 116 -24 12 -106
11 -114 -2z"/>
<path d="M3195 1396 c-73 -33 -122 -122 -111 -202 8 -61 28 -96 73 -126 68
-46 190 -48 255 -5 30 21 31 24 31 92 l0 70 -73 3 c-75 3 -110 -9 -80 -28 8
-5 25 -10 37 -10 26 0 37 -28 28 -70 -13 -58 -89 -69 -135 -20 -70 75 -53 222
31 266 48 24 78 18 120 -26 48 -50 61 -51 57 -2 -3 31 -9 40 -38 54 -42 22
-151 23 -195 4z"/>

<path d="M2218 924 c-75 -40 -60 -141 23 -159 31 -7 80 12 87 34 4 11 -1 10
-19 -2 -48 -34 -99 -7 -99 53 0 56 59 92 90 55 15 -19 30 -19 30 -2 0 15 -41
37 -68 37 -9 -1 -29 -7 -44 -16z"/>
<path d="M2355 850 l0 -80 57 0 c31 0 60 5 63 11 10 16 -4 24 -17 11 -7 -7
-23 -12 -36 -12 -23 0 -24 2 -20 75 3 74 3 75 -22 75 -25 0 -25 -1 -25 -80z"/>
<path d="M2488 917 c6 -7 12 -39 14 -72 3 -54 6 -61 31 -73 28 -14 58 -11 87
7 10 7 16 34 20 81 4 58 3 70 -10 70 -12 0 -14 -12 -12 -60 4 -70 -8 -93 -47
-88 -22 3 -27 10 -35 51 -6 32 -5 57 3 73 10 23 9 24 -25 24 -29 0 -34 -3 -26
-13z"/>
<path d="M2675 850 l0 -80 58 0 c32 0 67 5 78 10 25 14 24 45 -2 64 -20 14
-20 16 -5 31 34 35 9 55 -68 55 l-61 0 0 -80z m93 58 c9 -9 8 -16 -5 -30 -25
-27 -43 -22 -43 12 0 22 5 30 18 30 10 0 23 -5 30 -12z m11 -75 c13 -25 -5
-53 -34 -53 -21 0 -25 5 -25 29 0 40 40 56 59 24z"/>
</g>
</svg>
