<?xml version="1.0" encoding="utf-8"?>
<svg version="1.0" xmlns="http://www.w3.org/2000/svg" width="500.000000pt" height="500.000000pt" viewBox="0 0 500.000000 500.000000" preserveAspectRatio="xMidYMid meet">
  <g transform="translate(0.000000,500.000000) scale(0.100000,-0.100000)" fill="#000000" stroke="none">
    <path d="M 1580 3960 C 1772 3952 1850 3936 2006 3872 C 2033 3861 2073 3845 2095 3836 C 2117 3828 2167 3808 2205 3792 C 2545 3649 2640 3617 2805 3590 C 3094 3541 3180 3515 3225 3462 C 3238 3447 3275 3406 3309 3370 C 3342 3334 3381 3283 3396 3255 C 3411 3228 3446 3174 3473 3136 C 3538 3045 3579 2953 3596 2860 C 3632 2657 3587.862 2441 3483.862 2268 C 3441.862 2199 3328 2080.68 3258 2036.68 C 3238 2023.68 3218 2006 3215 1999 C 3201 1978 3365 2093 3399 2129 C 3503 2240 3574 2371 3610 2520 C 3668 2755 3621 3023 3492 3190 C 3477 3210 3449 3256 3430 3293 C 3391 3369 3295 3474 3224 3520 C 3140 3573 3060 3592 2805 3620 C 2640 3638 2627 3643 2220 3810 C 2102 3859 1965 3913 1915 3932 L 1825 3965 L 1610 3986.909 L 1426.469 3978.206 L 1395 3967 L 1580 3960 Z"/>
    <path d="M 1356 3805 C 1447 3759 1565 3650 1629 3553 C 1683 3470 1689 3463 1820 3349 C 1867 3309 1925 3257 1950 3234 C 2105 3092 2133 3071 2252 3010 C 2320 2975 2434 2917 2505 2880 C 2846 2706 2988 2601 3066 2466 C 3083 2435 3104 2370 3121 2291 C 3149 2168 3149 2167 3143 2240 C 3128 2448 3017 2612 2784 2770 C 2728 2809 2678 2840 2675 2840 C 2671 2840 2656 2848 2642 2859 C 2627 2869 2584 2895 2545 2915 C 2472 2955 2456 2964 2350 3025 C 2314 3046 2262 3076 2234 3091 C 2206 3106 2167 3129 2148 3142 C 2129 3155 2073 3190 2025 3220 C 1920 3286 1724 3463 1662 3549 C 1616 3612 1581.969 3661.981 1508.969 3725.981 C 1441.969 3784.981 1328 3840 1300 3840 C 1293 3840 1318 3824 1356 3805 Z"/>
    <path d="M 2772 3792.716 C 2754 3788.716 2725.821 3775.843 2714.333 3770.14 C 2700.012 3763.03 2687.333 3755.798 2674.333 3748.14 C 2661.333 3740.482 2661 3736 2664 3733 C 2667 3730 2692 3739 2719 3754 C 2762 3776 2783 3780 2851 3780 C 2950 3780 2995 3758 3053 3684 C 3073 3658 3090 3642 3090 3649 C 3090 3655 3064.008 3706.064 3033.008 3738.064 C 2958.008 3815.064 2882 3818.716 2772 3792.716 Z"/>
    <path d="M 1845.917 3728.095 C 1859.917 3716.095 1926 3672 1940 3662 C 1954 3653 1994 3625 2030 3599 C 2119 3536 2149 3521 2262 3490 C 2321 3473 2379 3449 2412 3428 C 2544 3341 2611 3300 2632 3295 C 2645 3292 2717 3286 2792 3282 C 2982 3271 3006 3252 3021 3095 L 3029 3015 L 3035.209 3055.713 C 3032.209 3138.713 3039.543 3195.479 3014.543 3228.479 C 2978.543 3276.479 2925 3297 2787 3314 C 2650 3333 2631 3339 2569 3391 C 2507 3442 2415 3498 2370 3510 C 2350 3515 2299 3525 2255 3531 C 2158 3544 2134 3554 2028 3623 C 1982 3652 1927 3695.618 1905 3707.618 C 1867 3729.618 1821.917 3748.095 1845.917 3728.095 Z"/>
    <path d="M 1290 3696 C 1290 3679 1319.207 3496.815 1332.207 3457.815 C 1348.207 3410.815 1404 3312 1425 3298 C 1430 3294 1452 3290 1472 3290 C 1506 3290 1512 3285 1543 3238 C 1561 3209 1609 3124 1649 3050 C 1726 2909 1791 2812 1835 2771 C 1870 2739 1929 2710 1960 2710 C 1988 2710 2051 2672 2145 2599 C 2219 2541 2374 2382 2504 2230 C 2740 1953 2742 1951 2847 1900 C 2919 1865 3034.451 1860.649 3078.451 1887.649 L 3122.019 1927.718 L 3060 1897.628 C 3046 1893.628 3008 1885 2974 1885 C 2869 1886 2763 1956 2654 2095 C 2633 2123 2557 2216 2485 2304 C 2414 2391 2333 2491 2307 2526 C 2201 2666 2070 2770 1999 2770 C 1886 2770 1809 2847 1652 3117 C 1564 3267 1513 3325 1479 3315 C 1423 3297 1374 3381 1329 3569 C 1312 3641 1296 3700 1294 3700 C 1292 3700 1290 3698 1290 3696 Z"/>
    <path d="M2929 3023 c-36 -57 -34 -156 4 -240 27 -61 27 -63 11 -95 -16 -31 -16 -32 0 -19 43 36 58 110 35 168 -28 71 -37 122 -28 169 5 26 7 49 5 51 -2 2 -14 -13 -27 -34z"/>
  </g>
</svg>