<?xml version="1.0" encoding="UTF-8" standalone="no" ?>
<!DOCTYPE svg PUBLIC "-//W3C//DTD SVG 1.1//EN" "http://www.w3.org/Graphics/SVG/1.1/DTD/svg11.dtd">
<svg xmlns="http://www.w3.org/2000/svg" xmlns:xlink="http://www.w3.org/1999/xlink" version="1.1" width="1080" height="1080" viewBox="0 0 1080 1080" xml:space="preserve">
<desc>Created with Fabric.js 5.2.4</desc>
<defs>
</defs>
<rect x="0" y="0" width="100%" height="100%" fill="transparent"></rect>
<g transform="matrix(0 0 0 0 0 0)" id="cc040e2d-969d-41dd-ac1c-12819dca191c"  >
</g>
<g transform="matrix(1 0 0 1 540 540)" id="cdae6bdb-f275-4eea-ba9d-e1c2a88d47c1"  >
<rect style="stroke: none; stroke-width: 1; stroke-dasharray: none; stroke-linecap: butt; stroke-dashoffset: 0; stroke-linejoin: miter; stroke-miterlimit: 4; fill: rgb(255,255,255); fill-rule: nonzero; opacity: 1; visibility: hidden;" vector-effect="non-scaling-stroke"  x="-540" y="-540" rx="0" ry="0" width="1080" height="1080" />
</g>
<g transform="matrix(2 0 0 2 540 540)"  >
<g style="" vector-effect="non-scaling-stroke"   >
		<g transform="matrix(0.18 0 0 -0.18 213.16 0.8)"  >
<path style="stroke: none; stroke-width: 1; stroke-dasharray: none; stroke-linecap: butt; stroke-dashoffset: 0; stroke-linejoin: miter; stroke-miterlimit: 4; fill: rgb(0,0,0); fill-rule: nonzero; opacity: 1;" vector-effect="non-scaling-stroke"  transform=" translate(-5691.61, -2425.85)" d="M 5654 2720 C 5267 2649 5347 2099 5740 2125 C 5931 2138 5969 2168 5976 2316 L 5982 2442 L 5846 2436 C 5711 2430 5659 2396 5766 2384 C 5857 2373 5865 2246 5778 2199 C 5677 2145 5560 2264 5560 2420 C 5560 2631 5734 2735 5860 2600 C 5931 2524 5960 2524 5960 2599 C 5960 2692 5815 2749 5654 2720 z" stroke-linecap="round" />
</g>
		<g transform="matrix(0.18 0 0 -0.18 -209.86 1.78)"  >
<path style="stroke: none; stroke-width: 1; stroke-dasharray: none; stroke-linecap: butt; stroke-dashoffset: 0; stroke-linejoin: miter; stroke-miterlimit: 4; fill: rgb(0,0,0); fill-rule: nonzero; opacity: 1;" vector-effect="non-scaling-stroke"  transform=" translate(-3310.32, -2420.34)" d="M 3011 2702 C 3005 2693 3014 2673 3030 2660 C 3075 2623 3073 2227 3028 2178 C 2965 2108 3345 2100 3477 2168 C 3692 2280 3637 2660 3399 2707 C 3304 2726 3024 2723 3011 2702 z M 3329 2640 C 3537 2561 3482 2200 3261 2200 L 3200 2200 L 3200 2417 C 3200 2676 3206 2687 3329 2640 z" stroke-linecap="round" />
</g>
		<g transform="matrix(0.18 0 0 -0.18 -72.63 1.84)"  >
<path style="stroke: none; stroke-width: 1; stroke-dasharray: none; stroke-linecap: butt; stroke-dashoffset: 0; stroke-linejoin: miter; stroke-miterlimit: 4; fill: rgb(0,0,0); fill-rule: nonzero; opacity: 1;" vector-effect="non-scaling-stroke"  transform=" translate(-4081.14, -2420)" d="M 3660 2689 C 3660 2673 3669 2660 3680 2660 C 3708 2660 3706 2214 3678 2186 C 3638 2146 3680 2120 3780 2120 C 3883 2120 3918 2144 3881 2189 C 3867 2206 3861 2297 3864 2443 C 3872 2737 3903 2749 3990 2490 C 4155 1996 4263 2003 4429 2520 C 4449 2581 4473 2639 4482 2649 C 4525 2695 4499 2720 4410 2720 C 4318 2720 4283 2679 4352 2652 C 4390 2637 4380 2582 4302 2378 L 4246 2233 L 4192 2351 C 4114 2520 4083 2644 4115 2655 C 4220 2690 4125 2718 3900 2718 C 3704 2718 3660 2712 3660 2689 z" stroke-linecap="round" />
</g>
		<g transform="matrix(0.18 0 0 -0.18 25.16 1.84)"  >
<path style="stroke: none; stroke-width: 1; stroke-dasharray: none; stroke-linecap: butt; stroke-dashoffset: 0; stroke-linejoin: miter; stroke-miterlimit: 4; fill: rgb(0,0,0); fill-rule: nonzero; opacity: 1;" vector-effect="non-scaling-stroke"  transform=" translate(-4635.64, -2420)" d="M 4520 2690 C 4520 2674 4529 2660 4540 2660 C 4568 2660 4566 2214 4538 2186 C 4501 2149 4537 2120 4620 2120 C 4741 2120 4766 2135 4730 2186 C 4687 2247 4687 2625 4730 2660 C 4778 2700 4745 2720 4629 2720 C 4545 2720 4520 2713 4520 2690 z" stroke-linecap="round" />
</g>
		<g transform="matrix(0.18 0 0 -0.18 104.6 0.72)"  >
<path style="stroke: none; stroke-width: 1; stroke-dasharray: none; stroke-linecap: butt; stroke-dashoffset: 0; stroke-linejoin: miter; stroke-miterlimit: 4; fill: rgb(0,0,0); fill-rule: nonzero; opacity: 1;" vector-effect="non-scaling-stroke"  transform=" translate(-5080.52, -2426.41)" d="M 4793 2705 C 4787 2695 4800 2672 4822 2653 C 4869 2612 4868 2248 4821 2191 C 4787 2151 4812 2120 4876 2120 C 4957 2121 5000 2155 4955 2181 C 4926 2199 4920 2232 4920 2383 L 4920 2564 L 5076 2347 C 5291 2048 5308 2051 5316 2379 C 5320 2564 5329 2637 5351 2661 C 5389 2703 5370 2720 5280 2720 C 5191 2720 5171 2704 5207 2662 C 5223 2644 5240 2567 5245 2490 L 5255 2350 L 5218 2400 C 5198 2428 5138 2509 5085 2580 C 4991 2708 4836 2774 4793 2705 z" stroke-linecap="round" />
</g>
</g>
</g>
<g transform="matrix(0 0 0 0 0 0)"  >
<g style=""   >
</g>
</g>
</svg>