<?xml version="1.0" encoding="utf-8"?>
<svg version="1.0" width="450.000000pt" height="450.000000pt" viewBox="0 0 450.000000 450.000000" preserveAspectRatio="xMidYMid meet" xmlns="http://www.w3.org/2000/svg" xmlns:bx="https://boxy-svg.com"><defs><bx:export><bx:file format="svg" units="pt"/></bx:export></defs><g transform="matrix(0.05, 0, 0, -0.05, -127.192078, 450)" fill="#000000" stroke="none"><path d="M 10140.512 5234.597 C 9088.522 5041.596 9305.987 3546.521 10374.288 3617.196 C 10893.487 3652.534 10996.782 3734.084 11015.812 4136.396 L 11032.121 4478.904 L 10662.429 4462.593 C 10295.457 4446.284 10154.103 4353.862 10444.964 4321.241 C 10692.331 4291.339 10714.078 3946.113 10477.584 3818.352 C 10203.034 3671.564 9884.99 3995.043 9884.99 4419.1 C 9884.99 4992.667 10357.977 5275.372 10700.486 4908.399 C 10893.487 4701.806 10972.318 4701.806 10972.318 4905.68 C 10972.318 5158.484 10578.161 5313.429 10140.512 5234.597 Z" style=""/><path d="M 2955.993 5185.668 C 2939.682 5161.202 2964.148 5106.837 3007.641 5071.498 C 3129.965 4970.919 3124.529 3894.465 3002.204 3761.268 C 2830.95 3570.985 3863.911 3549.239 4222.73 3734.084 C 4807.169 4038.536 4657.661 5071.498 4010.701 5199.259 C 3752.461 5250.907 2991.332 5242.752 2955.993 5185.668 Z M 3820.418 5017.132 C 4385.83 4802.383 4236.321 3821.07 3635.573 3821.07 L 3469.755 3821.07 L 3469.755 4410.946 C 3469.755 5114.991 3486.064 5144.893 3820.418 5017.132 Z" style=""/><path d="M 4720.183 5150.33 C 4720.183 5106.837 4744.647 5071.498 4774.549 5071.498 C 4850.662 5071.498 4845.226 3859.127 4769.112 3783.014 C 4660.379 3674.282 4774.549 3603.605 5046.38 3603.605 C 5326.368 3603.605 5421.508 3668.845 5320.931 3791.168 C 5282.875 3837.381 5266.565 4084.747 5274.72 4481.623 C 5296.466 5280.809 5380.734 5313.429 5617.228 4609.384 C 6065.752 3266.533 6359.328 3285.561 6810.57 4690.933 C 6864.936 4856.751 6930.176 5014.412 6954.642 5041.596 C 7071.528 5166.639 7000.853 5234.597 6758.922 5234.597 C 6508.837 5234.597 6413.696 5123.146 6601.259 5049.751 C 6704.556 5008.976 6677.373 4859.469 6465.344 4304.932 L 6313.117 3910.775 L 6166.329 4231.537 C 5954.3 4690.933 5870.032 5028.005 5957.018 5057.905 C 6242.442 5153.048 5984.202 5229.161 5372.579 5229.161 C 4839.788 5229.161 4720.183 5212.85 4720.183 5150.33 Z" style=""/><path d="M 7057.937 5153.048 C 7057.937 5109.555 7082.403 5071.498 7112.303 5071.498 C 7188.417 5071.498 7182.98 3859.127 7106.867 3783.014 C 7006.29 3682.436 7104.149 3603.605 7329.769 3603.605 C 7658.686 3603.605 7726.644 3644.38 7628.785 3783.014 C 7511.897 3948.831 7511.897 4976.357 7628.785 5071.498 C 7759.265 5180.23 7669.56 5234.597 7354.234 5234.597 C 7125.896 5234.597 7057.937 5215.568 7057.937 5153.048 Z" style=""/><path d="M 7800.039 5193.823 C 7783.728 5166.639 7819.067 5104.118 7878.869 5052.469 C 8006.63 4941.019 8003.912 3951.549 7876.151 3796.606 C 7783.728 3687.873 7851.687 3603.605 8025.659 3603.605 C 8245.843 3606.323 8362.731 3698.746 8240.407 3769.423 C 8161.575 3818.352 8145.266 3908.056 8145.266 4318.523 L 8145.266 4810.54 L 8569.324 4220.664 C 9153.763 3407.885 9199.974 3416.042 9221.72 4307.65 C 9232.594 4810.54 9257.058 5008.976 9316.862 5074.216 C 9420.157 5188.386 9368.51 5234.597 9123.861 5234.597 C 8881.93 5234.597 8827.564 5191.104 8925.423 5076.934 C 8968.916 5028.005 9015.127 4818.694 9028.72 4609.384 L 9055.902 4228.819 L 8955.325 4364.734 C 8900.959 4440.848 8737.859 4661.031 8593.787 4854.033 C 8338.265 5201.977 7916.926 5381.386 7800.039 5193.823 Z" style=""/></g></svg>